<svg xmlns="http://www.w3.org/2000/svg">
    <symbol viewBox="0 0 16 16" id="dude">
        <path fill-rule="evenodd" d="M2 2.5A2.5 2.5 0 0 1 4.5 0h7A2.5 2.5 0 0 1 14 2.5V14a2 2 0 0 1-2 2H4a2 2 0 0 1-2-2V2.5zM4.5 1A1.5 1.5 0 0 0 3 2.5v10.795a4.2 4.2 0 0 1 .776-.492C4.608 12.387 5.937 12 8 12s3.392.387 4.224.803a4.2 4.2 0 0 1 .776.492V2.5A1.5 1.5 0 0 0 11.5 1h-7z"/>
        <path fill-rule="evenodd" d="M8 11a3 3 0 1 0 0-6 3 3 0 0 0 0 6zM6 2.5a.5.5 0 0 1 .5-.5h3a.5.5 0 0 1 0 1h-3a.5.5 0 0 1-.5-.5z"/>
    </symbol>
    <symbol viewBox="0 0 512 512" id="ruble">
        <path d="m288.134 128.533h-80.334c-8.284 0-15 6.716-15 15v113.533h-17.133c-8.284 0-15 6.716-15 15s6.716 15 15 15h17.133v34.267h-17.133c-8.284 0-15 6.716-15 15s6.716 15 15 15h17.133v33.2c0 8.284 6.716 15 15 15s15-6.716 15-15v-33.2h65.334c8.284 0 15-6.716 15-15s-6.716-15-15-15h-65.334v-34.267h65.334c43.708 0 79.267-35.559 79.267-79.267-.001-44.788-36.484-79.266-79.267-79.266zm0 128.533h-65.334v-98.533h65.334c27.002 0 49.267 21.78 49.267 49.267-.001 27.166-22.101 49.266-49.267 49.266z"></path>
    </symbol>
</svg>